<?xml version="1.0" encoding="UTF-8"?>
<!DOCTYPE svg PUBLIC "-//W3C//DTD SVG 1.1//EN" "http://www.w3.org/Graphics/SVG/1.1/DTD/svg11.dtd">
<!-- Creator: CorelDRAW 2019 (64 Bit) -->
<svg xmlns="http://www.w3.org/2000/svg" xml:space="preserve" width="6.6886mm" height="3.8946mm" version="1.1" style="shape-rendering:geometricPrecision; text-rendering:geometricPrecision; image-rendering:optimizeQuality; fill-rule:evenodd; clip-rule:evenodd"
viewBox="0 0 668.86 389.46"
 xmlns:xlink="http://www.w3.org/1999/xlink">
 <defs>
  <style type="text/css">
   <![CDATA[
    .fil1 {fill:#00AADA}
    .fil5 {fill:#00ACD3}
    .fil4 {fill:#019BC6}
    .fil3 {fill:#028BB8}
    .fil6 {fill:#23C2EE}
    .fil2 {fill:#28B8EB}
    .fil0 {fill:#3A4D54}
    .fil8 {fill:#BFDBE0}
    .fil7 {fill:#D4EEF1}
   ]]>
  </style>
 </defs>
 <g id="Camada_x0020_1">
  <metadata id="CorelCorpID_0Corel-Layer"/>
  <g id="_2000424419968">
   <path class="fil0" d="M382.05 125.42l59.79 0 0 60.85 30.16 0c13.76,0 28.05,-2.65 41.27,-6.88 6.35,-2.12 13.76,-5.29 20.11,-9 -8.47,-11.11 -12.7,-24.87 -13.76,-38.63 -1.59,-18.52 2.12,-42.86 14.82,-57.15l6.35 -7.41 7.41 5.82c19.05,15.35 34.4,35.98 37.57,60.32 22.75,-6.88 49.21,-5.29 69.32,6.35l7.94 4.76 -4.23 8.47c-16.93,32.81 -52.39,43.39 -86.78,41.27 -51.86,128.58 -164.04,189.44 -300.56,189.44 -70.38,0 -134.93,-26.46 -171.98,-88.9l-0.53 -1.06 -5.29 -11.11c-12.7,-27.52 -16.4,-57.68 -13.76,-87.84l1.06 -9 50.8 0.02 0 -60.32 59.79 0 0 -59.8 119.06 0 0 -59.79 71.44 0 0 119.59z"/>
   <path class="fil1" d="M575.19 147.64c4.23,-31.22 -19.05,-55.56 -33.87,-67.2 -16.4,19.05 -19.05,69.85 6.88,91.01 -14.82,12.7 -44.98,24.87 -76.73,24.87l-382.05 0c-3.17,32.81 2.65,62.97 15.87,88.9l4.23 7.94c2.65,4.76 5.82,9 9,13.76 15.87,1.06 30.16,1.59 43.39,1.06 25.93,-0.53 47.09,-3.7 63.5,-9 2.65,-1.06 4.76,0.53 5.82,2.65 1.06,2.65 -0.53,4.76 -2.65,5.82 -2.12,0.53 -4.23,1.59 -6.88,2.12 -12.7,3.7 -26.46,5.82 -43.92,6.88l-3.16 -0.01c-6.88,0.53 -14.29,0.53 -22.22,0.53 -8.47,0 -16.4,0 -25.93,-0.53 31.75,35.98 81.49,57.15 143.93,57.15 132.29,0 244.47,-58.74 293.68,-189.97 35.45,3.7 69.32,-5.29 84.67,-35.45 -23.81,-13.76 -55.56,-9.52 -73.55,-0.53l-0.01 0z"/>
   <path class="fil2" d="M575.19 147.64c4.23,-31.22 -19.05,-55.56 -33.87,-67.2 -16.4,19.05 -19.05,69.85 6.88,91.01 -14.82,12.7 -44.98,24.87 -76.73,24.87l-359.82 0c-1.59,50.27 16.93,88.37 50.27,111.12 25.93,-0.53 47.09,-3.7 63.5,-9 2.65,-1.06 4.76,0.53 5.82,2.65 1.06,2.65 -0.53,4.76 -2.65,5.82 -2.12,0.53 -4.23,1.59 -6.88,2.12 -12.7,3.7 -27.52,6.35 -44.98,7.41l-0.53 -0.53c44.98,23.28 110.06,22.75 185.2,-5.82 83.61,-32.28 161.92,-93.66 216.42,-163.51 -1.06,0.53 -1.59,1.06 -2.65,1.06l0.02 0z"/>
   <path class="fil3" d="M89.95 236.01c2.12,17.46 7.41,33.87 15.35,49.21l4.23 7.94c2.65,4.76 5.82,9 9,13.76 15.87,1.06 30.16,1.59 43.39,1.06 25.93,-0.53 47.09,-3.7 63.5,-9 2.65,-1.06 4.76,0.53 5.82,2.65 1.06,2.65 -0.53,4.76 -2.65,5.82 -2.12,0.53 -4.23,1.59 -6.88,2.12 -12.7,3.7 -27.52,6.35 -44.98,7.41l-2.11 -0.01c-6.88,0.53 -14.29,0.53 -21.7,0.53 -8.47,0 -16.93,0 -25.93,-0.53 31.75,35.98 82.02,57.15 144.46,57.15 113.24,0 211.66,-42.86 268.81,-137.58l-450.31 0 0 -0.53z"/>
   <path class="fil4" d="M115.35 236.01c6.88,30.69 22.75,55.03 46.57,71.44 25.93,-0.53 47.09,-3.7 63.5,-9 2.65,-1.06 4.76,0.53 5.82,2.65 1.06,2.65 -0.53,4.76 -2.65,5.82 -2.12,0.53 -4.23,1.59 -6.88,2.12 -12.7,3.7 -27.52,6.35 -45.51,7.41 44.98,23.28 110.06,22.75 184.68,-5.82 44.98,-17.46 88.9,-43.39 128.06,-74.61l-373.59 -0.01z"/>
   <path class="fil5" d="M141.28 134.94l51.86 0 0 51.86 -51.86 0 0 -51.86zm4.24 4.76l4.23 0 0 42.86 -4.23 0 0 -42.86zm7.93 0l4.24 0 0 42.86 -4.24 0 0 -42.86zm7.94 0l4.23 0 0 42.86 -4.23 0 0 -42.86zm7.41 0l4.23 0 0 42.86 -4.23 0 0 -42.86zm7.94 0l4.23 0 0 42.86 -4.23 0 0 -42.86zm7.93 0l4.24 0 0 42.86 -4.24 0 0 -42.86zm16.41 -64.03l51.85 0 0 51.33 -51.85 0 0 -51.33zm4.23 4.24l4.23 0 0 42.86 -4.23 0 0 -42.86zm7.94 0l4.23 0 0 42.86 -4.23 0 0 -42.86zm7.41 0l4.23 0 0 42.86 -4.23 0 0 -42.86zm7.93 0l4.24 0 0 42.86 -4.24 0 0 -42.86zm7.94 0l4.23 0 0 42.86 -4.23 0 0 -42.86zm7.94 0l4.23 0 0 42.86 -4.23 0 0 -42.86z"/>
   <path class="fil6" d="M201.08 134.94l51.85 0 0 51.86 -51.85 0 0 -51.86zm4.23 4.76l4.23 0 0 42.86 -4.23 0 0 -42.86zm7.94 0l4.23 0 0 42.86 -4.23 0 0 -42.86zm7.41 0l4.23 0 0 42.86 -4.23 0 0 -42.86zm7.93 0l4.24 0 0 42.86 -4.24 0 0 -42.86zm7.94 0l4.23 0 0 42.86 -4.23 0 0 -42.86zm7.94 0l4.23 0 0 42.86 -4.23 0 0 -42.86z"/>
   <path class="fil5" d="M260.87 134.94l51.86 0 0 51.86 -51.86 0 0 -51.86zm4.23 4.76l4.24 0 0 42.86 -4.24 0 0 -42.86zm7.41 0l4.24 0 0 42.86 -4.24 0 0 -42.86zm7.94 0l4.23 0 0 42.86 -4.23 0 0 -42.86zm7.94 0l4.23 0 0 42.86 -4.23 0 0 -42.86zm7.93 0l4.24 0 0 42.86 -4.24 0 0 -42.86zm7.41 0l4.24 0 0 42.86 -4.24 0 0 -42.86z"/>
   <path class="fil6" d="M260.87 75.67l51.86 0 0 51.33 -51.86 0 0 -51.33zm4.23 4.24l4.24 0 0 42.86 -4.24 0 0 -42.86zm7.41 0l4.24 0 0 42.86 -4.24 0 0 -42.86zm7.94 0l4.23 0 0 42.86 -4.23 0 0 -42.86zm7.94 0l4.23 0 0 42.86 -4.23 0 0 -42.86zm7.93 0l4.24 0 0 42.86 -4.24 0 0 -42.86zm7.41 0l4.24 0 0 42.86 -4.24 0 0 -42.86zm16.41 55.03l51.85 0 0 51.86 -51.85 0 0 -51.86zm4.76 4.76l4.23 0 0 42.86 -4.23 0 0 -42.86zm7.41 0l4.23 0 0 42.86 -4.23 0 0 -42.86zm7.93 0l4.24 0 0 42.86 -4.24 0 0 -42.86zm7.94 0l4.24 0 0 42.86 -4.24 0 0 -42.86zm7.41 0l4.23 0 0 42.86 -4.23 0 0 -42.86zm7.94 0l4.23 0 0 42.86 -4.23 0 0 -42.86z"/>
   <path class="fil5" d="M320.14 75.67l51.85 0 0 51.33 -51.85 0 0 -51.33zm4.76 4.24l4.23 0 0 42.86 -4.23 0 0 -42.86zm7.41 0l4.23 0 0 42.86 -4.23 0 0 -42.86zm7.93 0l4.24 0 0 42.86 -4.24 0 0 -42.86zm7.94 0l4.24 0 0 42.86 -4.24 0 0 -42.86zm7.41 0l4.23 0 0 42.86 -4.23 0 0 -42.86zm7.94 0l4.23 0 0 42.86 -4.23 0 0 -42.86z"/>
   <path class="fil6" d="M320.14 15.88l51.85 0 0 51.86 -51.85 0 0 -51.86zm4.76 4.23l4.23 0 0 43.39 -4.23 0 0 -43.39zm7.41 0l4.23 0 0 43.39 -4.23 0 0 -43.39zm7.93 0l4.24 0 0 43.39 -4.24 0 0 -43.39zm7.94 0l4.24 0 0 43.39 -4.24 0 0 -43.39zm7.41 0l4.23 0 0 43.39 -4.23 0 0 -43.39zm7.94 0l4.23 0 0 43.39 -4.23 0 0 -43.39z"/>
   <path class="fil5" d="M379.93 134.94l51.86 0 0 51.86 -51.86 0 0 -51.86zm4.23 4.76l4.24 0 0 42.86 -4.24 0 0 -42.86zm7.94 0l4.24 0 0 42.86 -4.24 0 0 -42.86zm7.94 0l4.23 0 0 42.86 -4.23 0 0 -42.86zm7.41 0l4.23 0 0 42.86 -4.23 0 0 -42.86zm7.94 0l4.23 0 0 42.86 -4.23 0 0 -42.86zm7.93 0l4.24 0 0 42.86 -4.24 0 0 -42.86z"/>
   <path class="fil7" d="M249.23 270.93c7.94,0 14.29,6.35 14.29,14.29 0,7.94 -6.35,14.29 -14.29,14.29 -7.94,0 -14.29,-6.35 -14.29,-14.29 0.53,-7.94 6.88,-14.29 14.29,-14.29z"/>
   <g>
    <path class="fil0" d="M249.23 274.64c1.06,0 2.65,0 3.7,0.53 -1.06,0.53 -2.12,2.12 -2.12,3.7 0,2.12 2.12,4.23 4.23,4.23 1.59,0 3.17,-1.06 3.7,-2.12 0.53,1.06 0.53,2.65 0.53,3.7 0,5.82 -4.76,10.05 -10.05,10.05 -5.82,0 -10.05,-4.76 -10.05,-10.05 0,-5.29 4.76,-10.05 10.05,-10.05l0.01 0.01zm-251.88 -33.34l663.03 0c-14.29,-3.7 -45.51,-8.47 -40.75,-27.52 -26.46,30.16 -89.43,21.17 -105.83,6.35 -17.99,25.93 -121.71,15.87 -128.58,-4.23 -22.22,26.46 -91.54,26.46 -113.77,0 -7.41,20.11 -111.12,30.16 -128.58,4.23 -15.87,14.82 -79.37,23.81 -105.83,-6.35 5.82,18.52 -25.4,23.81 -39.69,27.52z"/>
   </g>
   <path class="fil8" d="M287.33 373.59c-35.45,-16.93 -54.5,-39.69 -65.62,-64.56 -13.23,3.7 -29.1,6.35 -47.09,7.41 -6.88,0.53 -14.29,0.53 -21.7,0.53 -9,0 -17.99,0 -27.52,-0.53 32.28,32.28 72.49,57.15 146.05,57.68 5.29,-0.53 10.58,-0.53 15.87,-0.53l0.01 0z"/>
   <path class="fil7" d="M234.94 331.79c-4.76,-6.88 -9.52,-14.82 -13.23,-22.75 -13.23,3.7 -29.1,6.35 -47.09,7.41 12.7,6.88 30.69,13.23 60.32,15.35l0 -0.01z"/>
  </g>
 </g>
</svg>
