<?xml version="1.0" encoding="UTF-8"?>
<!DOCTYPE svg PUBLIC "-//W3C//DTD SVG 1.1//EN" "http://www.w3.org/Graphics/SVG/1.1/DTD/svg11.dtd">
<!-- Creator: CorelDRAW 2019 (64 Bit) -->
<svg xmlns="http://www.w3.org/2000/svg" xml:space="preserve" version="1.1" style="fill-rule: evenodd; shape-rendering: geometricPrecision; text-rendering: geometricPrecision; image-rendering: optimizeQuality; clip-rule: evenodd"
anchor="middle" viewbox="0 0 100"
 xmlns:xlink="http://www.w3.org/1999/xlink">
 <defs>
  <style type="text/css">
   <![CDATA[
    .fil1 {fill:#00AADA}
    .fil5 {fill:#00ACD3}
    .fil4 {fill:#019BC6}
    .fil3 {fill:#028BB8}
    .fil6 {fill:#23C2EE}
    .fil2 {fill:#28B8EB}
    .fil0 {fill:#3A4D54}
    .fil8 {fill:#BFDBE0}
    .fil7 {fill:#D4EEF1}
   ]]>
  </style>
 </defs>
 <g id="Camada_x0020_1">
  <metadata id="CorelCorpID_0Corel-Layer"/>
  <g id="_2000424419968">
   <path class="fil0" d="M 382.1 125.4 l 59.8 0 l 0 60.9 l 30.2 0 c 13.8 0 28.1 -2.6 41.3 -6.9 c 6.3 -2.1 13.8 -5.3 20.1 -9 c -8.5 -11.1 -12.7 -24.9 -13.8 -38.6 c -1.6 -18.5 2.1 -42.9 14.8 -57.1 l 6.3 -7.4 l 7.4 5.8 c 19.1 15.3 34.4 36 37.6 60.3 c 22.8 -6.9 49.2 -5.3 69.3 6.3 l 7.9 4.8 l -4.2 8.5 c -16.9 32.8 -52.4 43.4 -86.8 41.3 c -51.9 128.6 -164 189.4 -300.6 189.4 c -70.4 0 -134.9 -26.5 -172 -88.9 l -0.5 -1.1 l -5.3 -11.1 c -12.7 -27.5 -16.4 -57.7 -13.8 -87.8 l 1.1 -9 l 50.8 0 l 0 -60.3 l 59.8 0 l 0 -59.8 l 119.1 0 l 0 -59.8 l 71.4 0 l 0 119.6 z"/>
   <path class="fil1" d="M 575.2 147.6 c 4.2 -31.2 -19.1 -55.6 -33.9 -67.2 c -16.4 19.1 -19.1 69.8 6.9 91 c -14.8 12.7 -45 24.9 -76.7 24.9 l -382.1 0 c -3.2 32.8 2.6 63 15.9 88.9 l 4.2 7.9 c 2.6 4.8 5.8 9 9 13.8 c 15.9 1.1 30.2 1.6 43.4 1.1 c 25.9 -0.5 47.1 -3.7 63.5 -9 c 2.6 -1.1 4.8 0.5 5.8 2.6 c 1.1 2.6 -0.5 4.8 -2.6 5.8 c -2.1 0.5 -4.2 1.6 -6.9 2.1 c -12.7 3.7 -26.5 5.8 -43.9 6.9 l -3.2 0 c -6.9 0.5 -14.3 0.5 -22.2 0.5 c -8.5 0 -16.4 0 -25.9 -0.5 c 31.8 36 81.5 57.1 143.9 57.1 c 132.3 0 244.5 -58.7 293.7 -190 c 35.5 3.7 69.3 -5.3 84.7 -35.5 c -23.8 -13.8 -55.6 -9.5 -73.5 -0.5 l 0 0 z"/>
   <path class="fil2" d="M 575.2 147.6 c 4.2 -31.2 -19.1 -55.6 -33.9 -67.2 c -16.4 19.1 -19.1 69.8 6.9 91 c -14.8 12.7 -45 24.9 -76.7 24.9 l -359.8 0 c -1.6 50.3 16.9 88.4 50.3 111.1 c 25.9 -0.5 47.1 -3.7 63.5 -9 c 2.6 -1.1 4.8 0.5 5.8 2.6 c 1.1 2.6 -0.5 4.8 -2.6 5.8 c -2.1 0.5 -4.2 1.6 -6.9 2.1 c -12.7 3.7 -27.5 6.3 -45 7.4 l -0.5 -0.5 c 45 23.3 110.1 22.8 185.2 -5.8 c 83.6 -32.3 161.9 -93.7 216.4 -163.5 c -1.1 0.5 -1.6 1.1 -2.6 1.1 l 0 0 z"/>
   <path class="fil3" d="M 90 236 c 2.1 17.5 7.4 33.9 15.3 49.2 l 4.2 7.9 c 2.6 4.8 5.8 9 9 13.8 c 15.9 1.1 30.2 1.6 43.4 1.1 c 25.9 -0.5 47.1 -3.7 63.5 -9 c 2.6 -1.1 4.8 0.5 5.8 2.6 c 1.1 2.6 -0.5 4.8 -2.6 5.8 c -2.1 0.5 -4.2 1.6 -6.9 2.1 c -12.7 3.7 -27.5 6.3 -45 7.4 l -2.1 0 c -6.9 0.5 -14.3 0.5 -21.7 0.5 c -8.5 0 -16.9 0 -25.9 -0.5 c 31.8 36 82 57.1 144.5 57.1 c 113.2 0 211.7 -42.9 268.8 -137.6 l -450.3 0 l 0 -0.5 z"/>
   <path class="fil4" d="M 115.3 236 c 6.9 30.7 22.8 55 46.6 71.4 c 25.9 -0.5 47.1 -3.7 63.5 -9 c 2.6 -1.1 4.8 0.5 5.8 2.6 c 1.1 2.6 -0.5 4.8 -2.6 5.8 c -2.1 0.5 -4.2 1.6 -6.9 2.1 c -12.7 3.7 -27.5 6.3 -45.5 7.4 c 45 23.3 110.1 22.8 184.7 -5.8 c 45 -17.5 88.9 -43.4 128.1 -74.6 l -373.6 0 z"/>
   <path class="fil5" d="M 141.3 134.9 l 51.9 0 l 0 51.9 l -51.9 0 l 0 -51.9 z m 4.2 4.8 l 4.2 0 l 0 42.9 l -4.2 0 l 0 -42.9 z m 7.9 0 l 4.2 0 l 0 42.9 l -4.2 0 l 0 -42.9 z m 7.9 0 l 4.2 0 l 0 42.9 l -4.2 0 l 0 -42.9 z m 7.4 0 l 4.2 0 l 0 42.9 l -4.2 0 l 0 -42.9 z m 7.9 0 l 4.2 0 l 0 42.9 l -4.2 0 l 0 -42.9 z m 7.9 0 l 4.2 0 l 0 42.9 l -4.2 0 l 0 -42.9 z m 16.4 -64 l 51.9 0 l 0 51.3 l -51.9 0 l 0 -51.3 z m 4.2 4.2 l 4.2 0 l 0 42.9 l -4.2 0 l 0 -42.9 z m 7.9 0 l 4.2 0 l 0 42.9 l -4.2 0 l 0 -42.9 z m 7.4 0 l 4.2 0 l 0 42.9 l -4.2 0 l 0 -42.9 z m 7.9 0 l 4.2 0 l 0 42.9 l -4.2 0 l 0 -42.9 z m 7.9 0 l 4.2 0 l 0 42.9 l -4.2 0 l 0 -42.9 z m 7.9 0 l 4.2 0 l 0 42.9 l -4.2 0 l 0 -42.9 z"/>
   <path class="fil6" d="M 201.1 134.9 l 51.9 0 l 0 51.9 l -51.9 0 l 0 -51.9 z m 4.2 4.8 l 4.2 0 l 0 42.9 l -4.2 0 l 0 -42.9 z m 7.9 0 l 4.2 0 l 0 42.9 l -4.2 0 l 0 -42.9 z m 7.4 0 l 4.2 0 l 0 42.9 l -4.2 0 l 0 -42.9 z m 7.9 0 l 4.2 0 l 0 42.9 l -4.2 0 l 0 -42.9 z m 7.9 0 l 4.2 0 l 0 42.9 l -4.2 0 l 0 -42.9 z m 7.9 0 l 4.2 0 l 0 42.9 l -4.2 0 l 0 -42.9 z"/>
   <path class="fil5" d="M 260.9 134.9 l 51.9 0 l 0 51.9 l -51.9 0 l 0 -51.9 z m 4.2 4.8 l 4.2 0 l 0 42.9 l -4.2 0 l 0 -42.9 z m 7.4 0 l 4.2 0 l 0 42.9 l -4.2 0 l 0 -42.9 z m 7.9 0 l 4.2 0 l 0 42.9 l -4.2 0 l 0 -42.9 z m 7.9 0 l 4.2 0 l 0 42.9 l -4.2 0 l 0 -42.9 z m 7.9 0 l 4.2 0 l 0 42.9 l -4.2 0 l 0 -42.9 z m 7.4 0 l 4.2 0 l 0 42.9 l -4.2 0 l 0 -42.9 z"/>
   <path class="fil6" d="M 260.9 75.7 l 51.9 0 l 0 51.3 l -51.9 0 l 0 -51.3 z m 4.2 4.2 l 4.2 0 l 0 42.9 l -4.2 0 l 0 -42.9 z m 7.4 0 l 4.2 0 l 0 42.9 l -4.2 0 l 0 -42.9 z m 7.9 0 l 4.2 0 l 0 42.9 l -4.2 0 l 0 -42.9 z m 7.9 0 l 4.2 0 l 0 42.9 l -4.2 0 l 0 -42.9 z m 7.9 0 l 4.2 0 l 0 42.9 l -4.2 0 l 0 -42.9 z m 7.4 0 l 4.2 0 l 0 42.9 l -4.2 0 l 0 -42.9 z m 16.4 55 l 51.9 0 l 0 51.9 l -51.9 0 l 0 -51.9 z m 4.8 4.8 l 4.2 0 l 0 42.9 l -4.2 0 l 0 -42.9 z m 7.4 0 l 4.2 0 l 0 42.9 l -4.2 0 l 0 -42.9 z m 7.9 0 l 4.2 0 l 0 42.9 l -4.2 0 l 0 -42.9 z m 7.9 0 l 4.2 0 l 0 42.9 l -4.2 0 l 0 -42.9 z m 7.4 0 l 4.2 0 l 0 42.9 l -4.2 0 l 0 -42.9 z m 7.9 0 l 4.2 0 l 0 42.9 l -4.2 0 l 0 -42.9 z"/>
   <path class="fil5" d="M 320.1 75.7 l 51.9 0 l 0 51.3 l -51.9 0 l 0 -51.3 z m 4.8 4.2 l 4.2 0 l 0 42.9 l -4.2 0 l 0 -42.9 z m 7.4 0 l 4.2 0 l 0 42.9 l -4.2 0 l 0 -42.9 z m 7.9 0 l 4.2 0 l 0 42.9 l -4.2 0 l 0 -42.9 z m 7.9 0 l 4.2 0 l 0 42.9 l -4.2 0 l 0 -42.9 z m 7.4 0 l 4.2 0 l 0 42.9 l -4.2 0 l 0 -42.9 z m 7.9 0 l 4.2 0 l 0 42.9 l -4.2 0 l 0 -42.9 z"/>
   <path class="fil6" d="M 320.1 15.9 l 51.9 0 l 0 51.9 l -51.9 0 l 0 -51.9 z m 4.8 4.2 l 4.2 0 l 0 43.4 l -4.2 0 l 0 -43.4 z m 7.4 0 l 4.2 0 l 0 43.4 l -4.2 0 l 0 -43.4 z m 7.9 0 l 4.2 0 l 0 43.4 l -4.2 0 l 0 -43.4 z m 7.9 0 l 4.2 0 l 0 43.4 l -4.2 0 l 0 -43.4 z m 7.4 0 l 4.2 0 l 0 43.4 l -4.2 0 l 0 -43.4 z m 7.9 0 l 4.2 0 l 0 43.4 l -4.2 0 l 0 -43.4 z"/>
   <path class="fil5" d="M 379.9 134.9 l 51.9 0 l 0 51.9 l -51.9 0 l 0 -51.9 z m 4.2 4.8 l 4.2 0 l 0 42.9 l -4.2 0 l 0 -42.9 z m 7.9 0 l 4.2 0 l 0 42.9 l -4.2 0 l 0 -42.9 z m 7.9 0 l 4.2 0 l 0 42.9 l -4.2 0 l 0 -42.9 z m 7.4 0 l 4.2 0 l 0 42.9 l -4.2 0 l 0 -42.9 z m 7.9 0 l 4.2 0 l 0 42.9 l -4.2 0 l 0 -42.9 z m 7.9 0 l 4.2 0 l 0 42.9 l -4.2 0 l 0 -42.9 z"/>
   <path class="fil7" d="M 249.2 270.9 c 7.9 0 14.3 6.3 14.3 14.3 c 0 7.9 -6.3 14.3 -14.3 14.3 c -7.9 0 -14.3 -6.3 -14.3 -14.3 c 0.5 -7.9 6.9 -14.3 14.3 -14.3 z"/>
   <g>
    <path class="fil0" d="M 249.2 274.6 c 1.1 0 2.6 0 3.7 0.5 c -1.1 0.5 -2.1 2.1 -2.1 3.7 c 0 2.1 2.1 4.2 4.2 4.2 c 1.6 0 3.2 -1.1 3.7 -2.1 c 0.5 1.1 0.5 2.6 0.5 3.7 c 0 5.8 -4.8 10.1 -10.1 10.1 c -5.8 0 -10.1 -4.8 -10.1 -10.1 c 0 -5.3 4.8 -10.1 10.1 -10.1 l 0 0 z m -251.9 -33.3 l 663 0 c -14.3 -3.7 -45.5 -8.5 -40.8 -27.5 c -26.5 30.2 -89.4 21.2 -105.8 6.3 c -18 25.9 -121.7 15.9 -128.6 -4.2 c -22.2 26.5 -91.5 26.5 -113.8 0 c -7.4 20.1 -111.1 30.2 -128.6 4.2 c -15.9 14.8 -79.4 23.8 -105.8 -6.3 c 5.8 18.5 -25.4 23.8 -39.7 27.5 z"/>
   </g>
   <path class="fil8" d="M 287.3 373.6 c -35.5 -16.9 -54.5 -39.7 -65.6 -64.6 c -13.2 3.7 -29.1 6.3 -47.1 7.4 c -6.9 0.5 -14.3 0.5 -21.7 0.5 c -9 0 -18 0 -27.5 -0.5 c 32.3 32.3 72.5 57.1 146.1 57.7 c 5.3 -0.5 10.6 -0.5 15.9 -0.5 l 0 0 z"/>
   <path class="fil7" d="M 234.9 331.8 c -4.8 -6.9 -9.5 -14.8 -13.2 -22.8 c -13.2 3.7 -29.1 6.3 -47.1 7.4 c 12.7 6.9 30.7 13.2 60.3 15.3 l 0 0 z"/>
  </g>
 </g>
</svg>
