<svg width="128" height="128" viewBox="0 0 128 128" fill="none" xmlns="http://www.w3.org/2000/svg">
<ellipse rx="59" ry="57" cx="65" cy="64" fill="#2f3242"/>
<path d="M 51.4 39.5 C 52.4 39.7 53.3 39 53.5 38.1 C 53.7 37.1 53 36.1 52 36 L 51.4 39.5 Z M 28.6 43.6 L 30.2 44.5 L 30.2 44.5 L 28.6 43.6 Z M 28.9 60.9 C 29.4 61.8 30.5 62.1 31.4 61.6 C 32.3 61.1 32.6 60 32.1 59.1 L 28.9 60.9 Z M 37.7 66.7 C 37 66 35.9 66 35.2 66.6 C 34.4 67.3 34.4 68.4 35 69.2 L 37.7 66.7 Z M 53.7 81.7 L 52.8 83.3 L 53.7 81.7 Z M 96.9 89.5 C 97.7 89 98 87.8 97.4 87 C 96.8 86.2 95.7 86 94.9 86.5 L 96.9 89.5 Z M 52 36 C 46.5 34.9 41.3 34.9 37 35.9 C 32.7 37 29.1 39.2 27.1 42.7 L 30.2 44.5 C 31.6 42.1 34.1 40.3 37.8 39.4 C 41.5 38.5 46.2 38.5 51.4 39.5 L 52 36 Z M 27.1 42.7 C 24 47.9 25.3 54.5 28.9 60.9 L 32.1 59.1 C 28.7 53.2 28.1 48.1 30.2 44.5 L 27.1 42.7 Z M 35 69.2 C 39.6 74.2 45.7 79.1 52.8 83.3 L 54.6 80.1 C 47.8 76.2 42 71.5 37.7 66.7 L 35 69.2 Z M 52.8 83.3 C 61.3 88.2 70 91.2 77.7 92.4 C 85.4 93.5 92.3 92.7 96.9 89.5 L 94.9 86.5 C 91.3 89 85.5 89.8 78.3 88.8 C 71.1 87.8 62.8 84.9 54.6 80.1 L 52.8 83.3 Z M 105.4 84.9 C 105.4 81.4 102.5 78.6 99.1 78.6 V 82.2 C 100.6 82.2 101.8 83.4 101.8 84.9 H 105.4 Z M 99.1 78.6 C 95.6 78.6 92.8 81.4 92.8 84.9 H 96.4 C 96.4 83.4 97.6 82.2 99.1 82.2 V 78.6 Z M 92.8 84.9 C 92.8 88.4 95.6 91.2 99.1 91.2 V 87.6 C 97.6 87.6 96.4 86.4 96.4 84.9 H 92.8 Z M 99.1 91.2 C 102.5 91.2 105.4 88.4 105.4 84.9 H 101.8 C 101.8 86.4 100.6 87.6 99.1 87.6 V 91.2 Z" fill="#a2ecfb"/>
<path d="M 91.5 65.4 C 90.8 66.1 90.9 67.3 91.7 67.9 C 92.5 68.6 93.6 68.5 94.2 67.7 L 91.5 65.4 Z M 99.3 43.6 L 97.8 44.5 L 99.3 43.6 Z M 84.5 35.2 C 83.5 35.2 82.7 36 82.7 37 C 82.7 38 83.5 38.8 84.5 38.8 L 84.5 35.2 Z M 74.9 39.9 C 75.9 39.7 76.5 38.7 76.3 37.7 C 76.1 36.8 75.2 36.2 74.2 36.4 L 74.9 39.9 Z M 53.8 46.4 L 54.7 47.9 L 53.8 46.4 Z M 25.5 80.9 C 25.7 81.9 26.6 82.6 27.6 82.4 C 28.6 82.3 29.3 81.4 29.1 80.4 L 25.5 80.9 Z M 94.2 67.7 C 97.9 63.4 100.5 58.9 101.8 54.7 C 103 50.4 102.9 46.2 100.9 42.7 L 97.8 44.5 C 99.1 46.9 99.4 50 98.3 53.7 C 97.2 57.3 94.9 61.3 91.5 65.4 L 94.2 67.7 Z M 100.9 42.7 C 97.9 37.6 91.7 35.3 84.5 35.2 L 84.5 38.8 C 91.1 38.9 95.7 41 97.8 44.5 L 100.9 42.7 Z M 74.2 36.4 C 67.4 37.8 60.1 40.6 52.9 44.8 L 54.7 47.9 C 61.6 43.9 68.6 41.2 74.9 39.9 L 74.2 36.4 Z M 52.9 44.8 C 44.1 49.9 37 56.1 32.1 62.4 C 27.4 68.6 24.7 75.2 25.5 80.9 L 29.1 80.4 C 28.5 76.1 30.5 70.5 35 64.6 C 39.5 58.7 46.3 52.8 54.7 47.9 L 52.9 44.8 Z" fill="#a2ecfb"/>
<path d="M 49.1 87.2 C 48.7 86.3 47.7 85.8 46.8 86.1 C 45.8 86.5 45.4 87.5 45.7 88.4 L 49.1 87.2 Z M 78.6 96.4 C 79.1 95.6 78.8 94.5 77.9 94 C 77.1 93.4 76 93.7 75.5 94.6 L 78.6 96.4 Z M 79.6 85.2 C 79.3 86.1 79.8 87.1 80.8 87.4 C 81.7 87.7 82.7 87.2 83 86.3 L 79.6 85.2 Z M 84.4 64.1 H 82.6 H 84.4 Z M 69.2 22.5 C 68.2 22.1 67.2 22.5 66.8 23.4 C 66.4 24.4 66.8 25.4 67.7 25.8 L 69.2 22.5 Z M 45.7 88.4 C 47.6 93.8 50.1 98.3 53.2 101.5 C 56.3 104.7 59.9 106.7 64 106.7 V 103.1 C 61.2 103.1 58.4 101.8 55.8 99 C 53.2 96.3 50.9 92.2 49.1 87.2 L 45.7 88.4 Z M 64 106.7 C 69.9 106.7 74.9 102.5 78.6 96.4 L 75.5 94.6 C 72.1 100.2 68 103.1 64 103.1 V 106.7 Z M 83 86.3 C 85 79.8 86.2 72.2 86.2 64.1 H 82.6 C 82.6 71.9 81.5 79.1 79.6 85.2 L 83 86.3 Z M 86.2 64.1 C 86.2 54.1 84.4 44.9 81.5 37.7 C 78.6 30.4 74.3 24.8 69.2 22.5 L 67.7 25.8 C 71.6 27.6 75.4 32.2 78.2 39 C 80.9 45.8 82.6 54.5 82.6 64.1 H 86.2 Z" fill="#a2ecfb"/>
<path fill-rule="evenodd" clip-rule="evenodd" d="M 103.6 84.9 C 103.6 82.4 101.5 80.4 99.1 80.4 C 96.6 80.4 94.6 82.4 94.6 84.9 C 94.6 87.4 96.6 89.4 99.1 89.4 C 101.5 89.4 103.6 87.4 103.6 84.9 V 84.9 Z" stroke="#a2ecfb" stroke-width="3.6" stroke-linecap="round"/>
<path fill-rule="evenodd" clip-rule="evenodd" d="M 28.8 89.4 C 31.3 89.4 33.3 87.4 33.3 84.9 C 33.3 82.4 31.3 80.4 28.8 80.4 C 26.3 80.4 24.3 82.4 24.3 84.9 C 24.3 87.4 26.3 89.4 28.8 89.4 V 89.4 V 89.4 Z" stroke="#a2ecfb" stroke-width="3.6" stroke-linecap="round"/>
<ellipse cx="64" cy="23.2" rx="4.5" ry="4.5" stroke="#a2ecfb" stroke-width="3.6" stroke-linecap="round"/>
<path fill-rule="evenodd" clip-rule="evenodd" d="M 64.9 68.1 C 62.6 68.6 60.5 67.2 60 64.9 C 59.5 62.7 60.9 60.5 63.1 60 C 65.3 59.6 67.5 61 68 63.2 C 68.5 65.4 67.1 67.6 64.9 68.1 Z" fill="#a2ecfb"/>
</svg>
