<svg xmlns="http://www.w3.org/2000/svg"><path d="M 15.9 0.1 l 0.9 1.6 c 0.2 0.3 0.4 0.6 0.6 0.8 c 0.7 0.7 1.4 1.5 2 2.3 c 1.4 1.9 2.4 4 3.1 6.3 c 0.4 1.4 0.6 2.8 0.7 4.3 c 0.1 4.3 -1.4 8 -4.4 11.1 c -0.5 0.5 -1 0.9 -1.6 1.3 c -0.3 0 -0.4 -0.2 -0.6 -0.4 c -0.2 -0.4 -0.4 -0.8 -0.4 -1.3 c -0.1 -0.5 -0.2 -1 -0.1 -1.6 v -0.2 C 16.1 24.2 15.8 0.2 15.9 0.1 z" fill="#599636"/><path d="M 15.9 0 c 0 -0.1 -0.1 0 -0.1 0 c 0 0.3 -0.1 0.7 -0.3 1 c -0.2 0.3 -0.5 0.5 -0.8 0.8 c -1.6 1.3 -2.8 3 -3.7 4.8 c -1.3 2.4 -2 5.1 -2.2 7.8 c -0.1 1 0.3 4.5 0.6 5.5 c 0.9 2.7 2.4 4.9 4.4 6.9 c 0.5 0.5 1 0.9 1.6 1.3 c 0.2 0 0.2 -0.1 0.2 -0.2 a 4.8 4.8 0 0 0 0.2 -0.7 l 0.3 -2.6 L 15.9 0 z" fill="#6cac48"/><path d="M 16.8 28.8 c 0 -0.4 0.2 -0.7 0.4 -1.1 c -0.2 -0.1 -0.4 -0.3 -0.5 -0.5 c -0.1 -0.2 -0.2 -0.4 -0.3 -0.6 c -0.2 -0.7 -0.3 -1.5 -0.4 -2.2 v -0.5 c -0.1 0.1 -0.1 0.7 -0.1 0.8 a 17.4 17.4 0 0 1 -0.3 2.4 c -0.1 0.3 -0.1 0.6 -0.3 0.9 c 0 0 0 0.1 0 0.1 c 0.3 0.9 0.4 1.9 0.5 2.8 v 0.3 c 0 0.4 0 0.3 0.3 0.5 c 0.1 0.1 0.3 0.1 0.4 0.2 c 0.1 0 0.1 -0.1 0.1 -0.2 l -0.1 -0.6 v -1.6 c 0 -0.3 0 -0.6 0.1 -0.8 z" fill="#c2bfbf"/></svg>