<svg xmlns="http://www.w3.org/2000/svg" viewBox="0 0 128 128"><path fill-rule="evenodd" clip-rule="evenodd" fill="#439934" d="M 82.4 33.5 c 1.2 3.5 2.1 7.2 2.4 10.9 c 0.4 4.7 0.2 9.3 -0.8 13.9 l -0.1 0.4 c -0.3 0 -0.6 0 -0.9 0 c -2.5 0.4 -5.1 0.8 -7.6 1.2 c -2.6 0.4 -5.3 0.8 -7.9 1.3 c -0.9 0.2 -2.1 0 -2.5 1.3 l -0.2 0.1 l 0.1 -7.7 l -0.1 -18.5 l 1.2 -0.2 c 2 -0.3 4 -0.7 6 -1 c 2.4 -0.4 4.8 -0.7 7.2 -1.1 c 1.1 -0.2 2.1 -0.3 3.2 -0.5 z"/><path fill-rule="evenodd" clip-rule="evenodd" fill="#45a538" d="M 62.3 84.9 c -1.3 -1.1 -2.6 -2.2 -3.9 -3.3 c -6.7 -6.3 -11.5 -13.7 -13.9 -22.6 c -0.7 -2.5 -1.1 -4.9 -1.2 -7.5 c -0.1 -1.8 -0.2 -3.6 -0.1 -5.3 c 0.3 -4.7 1 -9.3 2.4 -13.9 l 0.1 -0.1 c 0.1 0.2 0.3 0.3 0.4 0.5 c 1.3 4 2.7 7.9 4 11.9 c 4.2 12.5 8.3 24.9 12.5 37.4 c 0.1 0.2 0.3 0.4 0.4 0.7 l -0.7 2.3 z"/><path fill-rule="evenodd" clip-rule="evenodd" fill="#46a037" d="M82.362 33.544c-1.057.157-2.114.309-3.169.471-2.392.37-4.784.74-7.174 1.119-2.003.318-4.004.651-6.006.979l-1.224.21-.01-.798c-.041-.656-.109-1.312-.118-1.968l-.137-12.554c-.032-2.619-.08-5.238-.133-7.856a198.423 198.423 0 00-.141-4.88c-.04-.873-.181-1.742-.237-2.615-.033-.502.011-1.008.022-1.512.624 1.209 1.235 2.427 1.876 3.627 1.013 1.897 2.628 3.295 4.083 4.82 5.746 6.031 9.825 13.039 12.368 20.957z"/><path fill-rule="evenodd" clip-rule="evenodd" fill="#409433" d="M64.792 62.527l.18-.061c.375-1.284 1.525-1.093 2.454-1.253 2.622-.454 5.251-.863 7.878-1.289 2.541-.411 5.081-.825 7.624-1.226.301-.047.615-.008.923-.009-.475 1.696-.849 3.429-1.452 5.078-.685 1.87-1.513 3.696-2.392 5.486a37.595 37.595 0 01-4.853 7.458c-1.466 1.762-3.1 3.393-4.737 5.002-.906.889-1.972 1.614-2.966 2.414l-.258-.176-.927-.792-.959-2.104a31.65 31.65 0 01-1.065-7.516l.018-.428.131-1.854c.043-.633.101-1.265.128-1.898.096-2.276.182-4.554.273-6.832z"/><path fill-rule="evenodd" clip-rule="evenodd" fill="#4faa41" d="M64.792 62.527c-.09 2.278-.176 4.557-.273 6.835-.027.634-.084 1.266-.128 1.898l-.584.221c-1.298-3.821-2.597-7.602-3.867-11.392-2.101-6.271-4.176-12.551-6.274-18.824a3423.013 3423.013 0 00-5.118-15.176c-.081-.236-.311-.422-.471-.631l3.74-6.877c.129.223.298.432.379.672 1.73 5.12 3.457 10.241 5.169 15.367 2.228 6.67 4.441 13.343 6.667 20.014.089.266.235.512.375.811l.512-.596-.127 7.678z"/><path fill-rule="evenodd" clip-rule="evenodd" fill="#4aa73c" d="M48.076 25.458c.161.209.391.395.471.631a3379.774 3379.774 0 015.118 15.176c2.098 6.273 4.173 12.553 6.274 18.824 1.27 3.79 2.569 7.57 3.867 11.392l.584-.221-.131 1.854-.119.427c-.203 2.029-.374 4.062-.622 6.087-.124 1.015-.389 2.011-.59 3.015-.151-.219-.363-.418-.445-.661-4.177-12.449-8.34-24.903-12.509-37.354a3010.791 3010.791 0 00-4.004-11.879c-.068-.201-.26-.359-.394-.537l2.5-6.754z"/><path fill-rule="evenodd" clip-rule="evenodd" fill="#57ae47" d="M64.918 54.849l-.512.596c-.14-.299-.286-.545-.375-.811-2.226-6.671-4.439-13.344-6.667-20.014a4618.057 4618.057 0 00-5.169-15.367c-.081-.24-.25-.449-.379-.672l4.625-6.084c.146.194.354.367.429.586 1.284 3.76 2.556 7.523 3.822 11.289 1.182 3.518 2.346 7.04 3.542 10.552.08.235.359.401.545.601l.01.798.129 18.526z"/><path fill-rule="evenodd" clip-rule="evenodd" fill="#60b24f" d="M64.779 35.525c-.187-.199-.465-.365-.545-.601-1.195-3.512-2.36-7.034-3.542-10.552a2495.581 2495.581 0 00-3.822-11.289c-.075-.219-.283-.392-.429-.586 1.504-1.473 2.961-2.999 4.526-4.404 1.391-1.248 2.509-2.586 2.561-4.559l.11-.393.396.998c-.01.504-.055 1.01-.022 1.512.057.873.198 1.742.237 2.615.073 1.625.108 3.253.141 4.88.053 2.618.101 5.237.133 7.856l.137 12.554c.01.657.079 1.313.119 1.969z"/><path fill-rule="evenodd" clip-rule="evenodd" fill="#a9aa88" d="M62.929 82.642c.201-1.004.466-2 .59-3.015.248-2.024.419-4.058.622-6.087l.051-.008.05.009a31.65 31.65 0 001.065 7.516c-.135.178-.324.335-.396.535-.555 1.566-1.079 3.145-1.637 4.71-.076.214-.29.381-.439.568l-.571-1.96.665-2.268z"/><path fill-rule="evenodd" clip-rule="evenodd" fill="#b6b598" d="M 62.8 86.9 c 0.1 -0.2 0.4 -0.4 0.4 -0.6 c 0.6 -1.6 1.1 -3.1 1.6 -4.7 c 0.1 -0.2 0.3 -0.4 0.4 -0.5 l 1 2.1 c -0.2 0.3 -0.5 0.5 -0.6 0.8 l -1.8 5.4 c -0.1 0.2 -0.3 0.4 -0.5 0.6 l -0.5 -3 z"/><path fill-rule="evenodd" clip-rule="evenodd" fill="#c2c1a7" d="M 63.4 89.9 c 0.2 -0.2 0.4 -0.3 0.5 -0.6 l 1.8 -5.4 c 0.1 -0.3 0.4 -0.5 0.6 -0.8 l 0.9 0.8 c -0.4 0.4 -0.7 1 -0.5 1.6 l -0.3 0.9 c -0.1 0.2 -0.3 0.3 -0.4 0.5 c -0.6 1.8 -1.3 3.7 -1.9 5.5 c -0.1 0.2 -0.3 0.4 -0.5 0.6 l -0.3 -3.2 z"/><path fill-rule="evenodd" clip-rule="evenodd" fill="#cecdb7" d="M 63.6 93.1 c 0.2 -0.2 0.4 -0.4 0.5 -0.6 c 0.6 -1.8 1.3 -3.7 1.9 -5.5 c 0.1 -0.2 0.2 -0.3 0.4 -0.5 l -0.4 4.2 c -0.1 0.1 -0.3 0.2 -0.3 0.4 l -1.3 3.7 c -0.1 0.3 -0.3 0.5 -0.4 0.7 c -0.1 -0.2 -0.3 -0.3 -0.3 -0.5 c 0 -0.6 0 -1.3 0 -1.9 z"/><path fill-rule="evenodd" clip-rule="evenodd" fill="#dbdac7" d="M 64 95.5 c 0.1 -0.2 0.3 -0.5 0.4 -0.7 l 1.3 -3.7 c 0.1 -0.1 0.2 -0.2 0.3 -0.4 l 0 2.8 l -0.9 2.4 l -1.1 -0.4 z"/><path fill-rule="evenodd" clip-rule="evenodd" fill="#ebe9dc" d="M 65.1 95.9 l 0.9 -2.4 l 0.2 2.8 l -1.1 -0.4 z"/><path fill-rule="evenodd" clip-rule="evenodd" fill="#cecdb7" d="M 66.6 85.6 c -0.1 -0.6 0.1 -1.2 0.5 -1.6 l 0.3 0.2 l -0.8 1.4 z"/><path fill-rule="evenodd" clip-rule="evenodd" fill="#4faa41" d="M 64.2 73.5 l -0.1 0 l -0.1 0 l 0.1 -0.4 l 0 0.4 z"/>
</svg>